<svg xmlns="http://www.w3.org/2000/svg" viewBox="0 0 232.8 158.1"><defs><style>.cls-1{fill:#f4f0e6;}.cls-2{fill:#4e342e;}.cls-3{fill:#dbd000;}</style></defs><g id="Layer_2" data-name="Layer 2"><g id="Layer_1-2" data-name="Layer 1"><path class="cls-1" d="M226.59,17.69l-7-4.83L214.2,8.93C141,27.86,120.65,77.09,120.65,77.09h0a26,26,0,0,0-1.47,3.27s10.36-57.86,95-71.44l-3.93-3.21s-78,7.5-93.09,67.15c0,0,11.65-63.58,90.59-69.3L204.2,0s-76.93,5.74-87.81,62.8C105.51,5.74,28.59,0,28.59,0L25,3.57c78.94,5.72,90.59,69.3,90.59,69.3C100.47,13.22,22.52,5.72,22.52,5.72L18.59,8.93c84.66,13.58,95,71.44,95,71.44a26,26,0,0,0-1.47-3.27h0S91.81,27.86,18.59,8.93l-5.36,3.93-7,4.83L106.46,89.3l9.15,1.83v.31l.78-.15.79.15v-.31l9.14-1.83Z"/><path class="cls-2" d="M232.8,21.58,129.54,91.44a16.87,16.87,0,0,1-13.08,6.23h-.75l-.89-.06a1.27,1.27,0,0,1-.28,0,16.7,16.7,0,0,1-11.44-6.12l0,0a.93.93,0,0,1,0-.13l-.11-.07L0,21.58l4-5.91L99.88,80.55l7.36,5c9.11,6.17,18.3,0,18.3,0l7.2-4.88,96.06-65Z"/><path class="cls-2" d="M132.81,82.14a15,15,0,0,1-3.27,9.3,16.87,16.87,0,0,1-13.08,6.23h-.75l-.89-.06a1.27,1.27,0,0,1-.28,0,16.7,16.7,0,0,1-11.44-6.12l0,0a1,1,0,0,1-.15-.2,14.74,14.74,0,0,1-3.13-9.09,13.88,13.88,0,0,1,.08-1.59c.84-7.84,7.88-14,16.43-14S132,72.77,132.74,80.66A14.52,14.52,0,0,1,132.81,82.14Z"/><path class="cls-3" d="M11.54,151.23H0a12,12,0,0,0,2-3.53,14.91,14.91,0,0,1,1.56-3.13,4.53,4.53,0,0,1,3.35-1.67v-7.17a2.83,2.83,0,0,0-.75-.52,1.51,1.51,0,0,0-.65-.15,4.34,4.34,0,0,0-.63.06,3.7,3.7,0,0,1-.5,0,1.73,1.73,0,0,1-.45,0,2.3,2.3,0,0,1-.48-.17A3.59,3.59,0,0,1,2,133.41,3.8,3.8,0,0,0,.4,131.85a5.6,5.6,0,0,0,1.42-1.62,8.13,8.13,0,0,1,1.46-2.06,4.62,4.62,0,0,1,.81-.51,1.93,1.93,0,0,1,.87-.22h.51a2.14,2.14,0,0,0,.58-.08,2.7,2.7,0,0,0,.71-.37V114.8a7.8,7.8,0,0,0,2.36,2.14,9.84,9.84,0,0,0,2.09,1,2.84,2.84,0,0,0-1.33,1.11,4.75,4.75,0,0,0-.3,2c0,.68,0,1.32,0,1.93s0,1.18.05,1.73v5.39a26.69,26.69,0,0,0-3.27.16c-1.3.18-2,.5-2,1a1,1,0,0,0,.49.94,3.47,3.47,0,0,0,1.47.25c.37,0,1,0,1.78-.09s1.37-.09,1.67-.09v16.21h1.71ZM4.2,116a2.18,2.18,0,0,1,.31,1.09,2,2,0,0,1-1,1.8,2.1,2.1,0,0,1-1.07.29,2,2,0,0,1-1.82-1,2.06,2.06,0,0,1-.29-1.06,2.11,2.11,0,0,1,.25-1,1.93,1.93,0,0,1,.75-.75A2.13,2.13,0,0,1,2.4,115a2.15,2.15,0,0,1,1,.24A2,2,0,0,1,4.2,116Zm0,4.67a2.18,2.18,0,0,1,.31,1.09,2,2,0,0,1-1,1.8,2.1,2.1,0,0,1-1.07.29,2,2,0,0,1-1.82-1,2.06,2.06,0,0,1-.29-1.06,2.11,2.11,0,0,1,.25-1,1.93,1.93,0,0,1,.75-.75,2.13,2.13,0,0,1,1.09-.3,2.15,2.15,0,0,1,1,.24A1.93,1.93,0,0,1,4.2,120.68Zm2.36,27.75v-2.05c-.28.27-.55.54-.8.82l-.76.89c0,.09.13.17.38.24A5.45,5.45,0,0,0,6.56,148.43Z"/><path class="cls-3" d="M28.39,151.23a6.88,6.88,0,0,1-1,4.12,3.91,3.91,0,0,1-3.35,1.43,3.82,3.82,0,0,1-3.41-1.46A4.77,4.77,0,0,1,20,152.6q0-.36,0-.69c0-.22,0-.45.06-.68H9.45v-2.8H23.21v2.79a6.31,6.31,0,0,0,.19,1.71c.12.45.38.68.76.68a1.06,1.06,0,0,0,1-.47,2.26,2.26,0,0,0,.2-1.09v-8.56a10.34,10.34,0,0,0-1.58-1.09,7.4,7.4,0,0,0,3-1.83c.71-.92,1.24-1.57,1.58-1.95v9.81h1.74v2.8Zm-13.34,2.89a2.71,2.71,0,0,1,.18.95,1.71,1.71,0,0,1-.21.83,1.83,1.83,0,0,1-.69.66,2,2,0,0,1-1.06.29,2,2,0,0,1-1.82-1,2.12,2.12,0,0,1-.29-1.07,2,2,0,0,1,.25-1,2,2,0,0,1,.77-.77,1.68,1.68,0,0,1,.87-.22,2.1,2.1,0,0,1,1.2.37A2.15,2.15,0,0,1,15.05,154.12Zm4.23,0a2.93,2.93,0,0,1,.17.95,1.71,1.71,0,0,1-.21.83,1.83,1.83,0,0,1-.69.66,2,2,0,0,1-1.05.29,2,2,0,0,1-1.83-1,2.12,2.12,0,0,1-.29-1.07,2.15,2.15,0,0,1,.25-1,1.93,1.93,0,0,1,.78-.77,1.64,1.64,0,0,1,.86-.22,2.15,2.15,0,0,1,1.21.37A2.21,2.21,0,0,1,19.28,154.12Z"/><path class="cls-3" d="M49.09,151.23H28.26v-2.8H33.7v-3.5a5.25,5.25,0,0,0-.2-1.9c-.32-.34-.63-.69-1-1l2-1.68a20.45,20.45,0,0,0,2-2v10.08h2.25v-7.76a3.34,3.34,0,0,0-1.09-1c.8-.59,1.5-1.14,2.11-1.65a10,10,0,0,0,1.87-2v12.41H44l0-8.93a1.71,1.71,0,0,0-.66-1.21l-.67-.53a8.74,8.74,0,0,0,3.09-2.34c.83-1.07,1.32-1.68,1.47-1.85v14.86h1.82Z"/><path class="cls-3" d="M59.21,151.2v1.13a3.25,3.25,0,0,1-1.29,2.25,6.28,6.28,0,0,1-3.25,1.6c-.09,0-.23.17-.42.45s-.35.44-.47.44-.26-.14-.47-.42-.36-.44-.46-.47a4.3,4.3,0,0,1-2.66-1.77,5.46,5.46,0,0,1-.92-3.18H47.78v-2.8h3.91v2.78a2.64,2.64,0,0,0,.47,1.48,1.84,1.84,0,0,0,1.62.93,2.59,2.59,0,0,0,2.71-2.42V121.39a8.09,8.09,0,0,0-.42-.84,3.33,3.33,0,0,0-1.44-1.34c.59-.37,1-.64,1.22-.8a8.82,8.82,0,0,0,1.71-1.6c.27-.33.62-.8,1.07-1.42.13-.21.32-.49.58-.85Z"/><path class="cls-3" d="M96.49,151.23h-30l-.36.59.47.4a1.84,1.84,0,0,0,.31.2l-2.8,1.72a16.13,16.13,0,0,0-2.33,1.73v-7.44H90.89v-8.28a12.2,12.2,0,0,0-.47-2.06c-.22-.61-.49-.91-.8-.91s-.66.27-.86.82a6.42,6.42,0,0,0-.3,2.15v6H61.81V132.42H67a1.78,1.78,0,0,0,.92-.42c.46-.33.69-.64.69-.94a1.47,1.47,0,0,0-.47-1,5.21,5.21,0,0,1-.47-.47H61.81V115.41a7.56,7.56,0,0,1,1.95,2.33,2.63,2.63,0,0,0,2.32,1.34l.66,0c.15,0,.41-.07.78-.16-.65.71-1.3,1.42-1.93,2.13a3.29,3.29,0,0,0-.63,2.12v3a11.37,11.37,0,0,1,1.78.17,8.77,8.77,0,0,1,3.34,1.2,3.76,3.76,0,0,1,1.82,3.25,4.93,4.93,0,0,1-1.89,4,6.24,6.24,0,0,1-4.07,1.45c-.16,0-.34,0-.53,0l-.45,0v7.2H85.57l-.09-3.14a5.7,5.7,0,0,1,1.81-4.62l2.78-2.27a5.64,5.64,0,0,0,1.69,1.9c1.39,1.06,2.08,2,2.08,2.93v10.34h2.65Z"/><path class="cls-3" d="M108.63,151.2a6.93,6.93,0,0,1-1,4.14,4.65,4.65,0,0,1-6.87-.15,5.16,5.16,0,0,1-.71-2.86v-1.1H93.24v-2.8h10v2.7a5.39,5.39,0,0,0,.24,1.89.91.91,0,0,0,.94.59,1,1,0,0,0,1-.85,8.3,8.3,0,0,0,.2-2.24v-7A11,11,0,0,0,104,142.4a7.28,7.28,0,0,0,3-1.82c.71-.92,1.24-1.57,1.58-2V151.2Zm.62-16.43a2.8,2.8,0,0,1,.18,1,1.64,1.64,0,0,1-.21.82,1.78,1.78,0,0,1-.69.67,2,2,0,0,1-1.06.29,2,2,0,0,1-1.82-1,2.06,2.06,0,0,1-.29-1.06,2.21,2.21,0,0,1,.24-1,2,2,0,0,1,.78-.76,1.66,1.66,0,0,1,.87-.23,2.11,2.11,0,0,1,1.2.38A2.08,2.08,0,0,1,109.25,134.77Z"/><path class="cls-3" d="M123.57,151.23h-3.71a8.92,8.92,0,0,1-.26,2.45,17.32,17.32,0,0,1-1.17,2.59,18.48,18.48,0,0,1-1.6-2.59,5.94,5.94,0,0,1-.53-2.45h-4.87a9,9,0,0,0,3.11-2.78l1.52-2.51a5.5,5.5,0,0,0,.93.86c.15.11.36.26.62.47a5,5,0,0,1-.48.74c-.07.1-.18.23-.32.39h2.11a5,5,0,0,0-1.65-2.16c-1.29-1.05-2-1.64-2.09-1.76a3.85,3.85,0,0,1-1-2.69,2.82,2.82,0,0,1,.62-1.69c.17-.2.4-.48.72-.82.41.18.87.42,1.39.71a7.9,7.9,0,0,0,1,.54l-.4.61a.93.93,0,0,0-.18.5,1.68,1.68,0,0,0,.13.51,36.83,36.83,0,0,0,2.69,3.51,13.39,13.39,0,0,1,1.8,2.74,17.92,17.92,0,0,0,1,1.84C123.07,150.48,123.29,150.81,123.57,151.23Zm-1.65-14.74a1.16,1.16,0,0,1-.23.43c-.16.23-.34.49-.57.77A14.33,14.33,0,0,0,120,136.6l-1-.89v-6.89a2.72,2.72,0,0,0-1.22-2c-.1-.09-.88-.61-2.33-1.58-.86-.56-1.31-1-1.34-1.44v-2.71a5.11,5.11,0,0,0-.33-1.94,3.17,3.17,0,0,0-1.25-1.4,7.73,7.73,0,0,0,2.58-1.2A14,14,0,0,0,117,114.9v4.82a9.74,9.74,0,0,0,.3,2.89,4.49,4.49,0,0,0,1.37,1.8c1.07.88,2.14,1.75,3.22,2.61Zm0,5a4,4,0,0,1-.55,1.87,3.1,3.1,0,0,1-1.18,1.27l-1.74-1.82a2.75,2.75,0,0,0,.67-1.33c0-.29-.26-.63-.79-1s-.74-.62-.93-.75a4.57,4.57,0,0,0-1.72-.8,4.78,4.78,0,0,1-.62-.19,3,3,0,0,0-.87-.16l0-11.5a2.24,2.24,0,0,1,.47-.66,5.57,5.57,0,0,1,1-.63l2,1.43a2.54,2.54,0,0,0-.46.7,1.82,1.82,0,0,0-.12.65v6.47c0,.43.42.9,1.27,1.4a12.69,12.69,0,0,1,2.33,1.69A4.72,4.72,0,0,1,121.92,141.53Zm1-24.23-1,1v5.25a5.16,5.16,0,0,1-.66,1,2.44,2.44,0,0,1-.85.48l-.38-.26a14.43,14.43,0,0,1-1.31-1.07c.06,0,.13-.1.2-.24s.17-.46.11-.52v-8a15.35,15.35,0,0,0,1.94,1.62A4.64,4.64,0,0,0,122.9,117.3Z"/><path class="cls-3" d="M127.79,148.43h3a1.68,1.68,0,0,0-.46,1.13v.27c.06.46.43.83,1.12,1.11a8.11,8.11,0,0,0,1,.29H125V114.54c.27.34.47.62.62.83.51.65.88,1.13,1.14,1.44a8.43,8.43,0,0,0,1.35,1.32,17.72,17.72,0,0,0,1.58,1.09,3.28,3.28,0,0,0-1.44,1.31,8.81,8.81,0,0,0-.43.87Z"/><path class="cls-3" d="M148.91,151.23H137.38a11.81,11.81,0,0,0,2-3.53,14.3,14.3,0,0,1,1.57-3.13,4.51,4.51,0,0,1,3.34-1.67v-7.17a3,3,0,0,0-.74-.52,1.51,1.51,0,0,0-.65-.15,4.34,4.34,0,0,0-.64.06,3.47,3.47,0,0,1-.49,0,1.85,1.85,0,0,1-.46,0,2.44,2.44,0,0,1-.47-.17,3.59,3.59,0,0,1-1.53-1.54,3.86,3.86,0,0,0-1.55-1.56,5.75,5.75,0,0,0,1.42-1.62,8.19,8.19,0,0,1,1.45-2.06,4.31,4.31,0,0,1,.82-.51,1.86,1.86,0,0,1,.86-.22h.51a2.14,2.14,0,0,0,.58-.08,2.55,2.55,0,0,0,.71-.37V114.8a7.92,7.92,0,0,0,2.36,2.14,10.08,10.08,0,0,0,2.09,1,2.86,2.86,0,0,0-1.32,1.11,4.75,4.75,0,0,0-.3,2c0,.68,0,1.32,0,1.93s0,1.18,0,1.73v5.39a26.62,26.62,0,0,0-3.26.16c-1.31.18-2,.5-2,1a1,1,0,0,0,.49.94,3.41,3.41,0,0,0,1.47.25q.56,0,1.77-.09c.82-.06,1.38-.09,1.67-.09v16.21h1.71ZM141.58,116a2.29,2.29,0,0,1,.31,1.09,2,2,0,0,1-1,1.8,2.12,2.12,0,0,1-1.07.29,2.12,2.12,0,0,1-2.11-2.11,2.21,2.21,0,0,1,.24-1,2,2,0,0,1,.76-.75,2.11,2.11,0,0,1,1.09-.3,2.17,2.17,0,0,1,1,.24A2.06,2.06,0,0,1,141.58,116Zm0,4.67a2.29,2.29,0,0,1,.31,1.09,2,2,0,0,1-1,1.8,2.12,2.12,0,0,1-1.07.29,2.12,2.12,0,0,1-2.11-2.11,2.21,2.21,0,0,1,.24-1,2,2,0,0,1,.76-.75,2.11,2.11,0,0,1,1.09-.3,2.17,2.17,0,0,1,1,.24A2,2,0,0,1,141.58,120.68Zm2.35,27.75v-2.05c-.28.27-.54.54-.8.82l-.75.89c0,.09.12.17.38.24A5.34,5.34,0,0,0,143.93,148.43Z"/><path class="cls-3" d="M164.54,151.23h-2.33a7,7,0,0,1-1,4.12,4.68,4.68,0,0,1-6.88-.16,5.16,5.16,0,0,1-.71-2.86v-1.1h-6.83v-2.8h10c0,.57,0,1.1,0,1.58s0,1-.05,1.4a4.88,4.88,0,0,0,.21,1.68.87.87,0,0,0,.9.52c.55,0,.91-.35,1.09-1.05a11.71,11.71,0,0,0,.2-2.69v-6.38a10.48,10.48,0,0,0-1.55-1.09,7.4,7.4,0,0,0,3-1.83c.71-.92,1.24-1.57,1.58-1.95v9.81h2.33Zm-11.89,2.89a2.71,2.71,0,0,1,.18.95,1.61,1.61,0,0,1-.22.83,1.88,1.88,0,0,1-.68.66,2,2,0,0,1-1.06.29,2,2,0,0,1-1.82-1,2,2,0,0,1-.29-1.07,2.15,2.15,0,0,1,.24-1,2.06,2.06,0,0,1,.78-.77,1.66,1.66,0,0,1,.87-.22,2.1,2.1,0,0,1,1.2.37A2.15,2.15,0,0,1,152.65,154.12Z"/><path class="cls-3" d="M180.11,151.23h-2.34a6.89,6.89,0,0,1-1,4.12,4.68,4.68,0,0,1-6.88-.16,5.25,5.25,0,0,1-.71-2.86v-1.1h-6.82v-2.8h10v2.7a5.69,5.69,0,0,0,.23,1.89.94.94,0,0,0,1,.59.93.93,0,0,0,1-.72,7.78,7.78,0,0,0,.23-2.2v-7.2a10.83,10.83,0,0,0-1.56-1.09,7.28,7.28,0,0,0,3-1.82c.71-.92,1.24-1.57,1.58-2v9.81h2.34Zm-5.7-16.8a2.5,2.5,0,0,1,.14.8,1.83,1.83,0,0,1-1,1.75,2,2,0,0,1-.89.22,2,2,0,0,1-1-.29,2.24,2.24,0,0,1-.78-.78,2.16,2.16,0,0,1-.3-1.12,2.09,2.09,0,0,1,.26-1,1.76,1.76,0,0,1,.72-.71,2,2,0,0,1,.91-.24,2.13,2.13,0,0,1,1.22.39A2,2,0,0,1,174.41,134.43Zm4.23,0a2.69,2.69,0,0,1,.15.8,1.88,1.88,0,0,1-.87,1.65,1.86,1.86,0,0,1-1,.31,2.09,2.09,0,0,1-1.07-.28,2,2,0,0,1-.78-.78,2.13,2.13,0,0,1-.29-1.12,2.08,2.08,0,0,1,.25-1,1.72,1.72,0,0,1,.73-.71,1.9,1.9,0,0,1,.92-.25,2.1,2.1,0,0,1,1.21.39A2.07,2.07,0,0,1,178.64,134.44Z"/><path class="cls-3" d="M210.12,148.43v-5.8a5.14,5.14,0,0,0-1.36-4c-.95-.74-1.89-1.48-2.82-2.24a7.55,7.55,0,0,1-1.66,1.47,7,7,0,0,0-1.61,1.41,5.23,5.23,0,0,0-.91,2.18,14.4,14.4,0,0,0-.09,2H187.79l15.34-12.88.93-.78.63-.53,5.43-4.56V121l-26.63,22.47-2.11,2.67H205v-3.81a3.67,3.67,0,0,1,.32-1.08c.15-.27.32-.41.53-.41a.82.82,0,0,1,.77.36,1.44,1.44,0,0,1,.16.78v9.37a4.29,4.29,0,0,1-.28,1.77.9.9,0,0,1-.86.6c-.35,0-.62-.26-.79-.78a3.29,3.29,0,0,1-.18-1.12c0-.32.06-1,.18-2.06,0-.32.08-.78.15-1.35H178v2.79h23.21a10.9,10.9,0,0,0,.08,1.16,7.61,7.61,0,0,0,1,2.59,4,4,0,0,0,1.29,1.33,5.27,5.27,0,0,1,1.93,1.8h.43a1.76,1.76,0,0,1,1.13-1.29c1.37-.62,2.3-2.24,2.8-4.88v-.71h4.41v-2.79Z"/><path class="cls-3" d="M220,121.39c-.17-.36-.31-.64-.43-.84a3.33,3.33,0,0,0-1.44-1.34l1.69-1.07a7.52,7.52,0,0,0,1.43-1.3,11.38,11.38,0,0,0,1.19-1.76c.08-.14.16-.31.27-.54v36.69h-10.1v-2.8h1.76c.12-.48.25-1,.38-1.45a3.4,3.4,0,0,1,1.58-2.42c.13-.09.94-.48,2.42-1.16.83-.38,1.25-.82,1.25-1.31Zm-.07,27,0-3.21a7.05,7.05,0,0,1-1.48,1.12,3.44,3.44,0,0,0-1.27,1,1.71,1.71,0,0,0-.18.77v.29Z"/><path class="cls-3" d="M228.11,148.43h3a1.69,1.69,0,0,0-.47,1.13v.27c.06.46.43.83,1.12,1.11a8.37,8.37,0,0,0,1,.29h-7.52V114.54c.27.34.48.62.62.83l1.14,1.44a8.43,8.43,0,0,0,1.35,1.32c.39.31.92.67,1.58,1.09a3.33,3.33,0,0,0-1.44,1.31,7.23,7.23,0,0,0-.42.87Z"/></g></g></svg>